<svg width="222" height="370" viewBox="0 0 222 370" fill="none" xmlns="http://www.w3.org/2000/svg">
  <path d="M169.667 144V24.1421C169.667 15.2331 180.438 10.7714 186.738 17.0711L218.071 48.4044C219.946 50.2798 221 52.8233 221 55.4755V150.243C221 152.665 220.121 155.005 218.526 156.828L172.655 209.252C170.756 211.422 168.013 212.667 165.129 212.667H62.3333C56.8105 212.667 52.3333 217.144 52.3333 222.667V342.525C52.3333 351.434 41.5619 355.895 35.2623 349.596L3.92893 318.262C2.05357 316.387 1 313.843 1 311.191V216.424C1 214.002 1.87918 211.662 3.47423 209.839L49.3452 157.415C51.2441 155.245 53.9874 154 56.871 154H159.667C165.19 154 169.667 149.523 169.667 144Z" fill="white" stroke="black"/>
  <path d="M221 306.809V205.181C221 195.947 209.555 191.647 203.474 198.596L172.141 234.406C170.546 236.229 169.667 238.568 169.667 240.991V342.619C169.667 351.852 181.112 356.153 187.192 349.204L218.526 313.394C220.121 311.571 221 309.232 221 306.809Z" fill="#1B1B1B" stroke="white"/>
  <path d="M52.3333 128.243V26.6145C52.3333 17.3808 40.888 13.0804 34.8076 20.0295L3.47423 55.839C1.87918 57.6619 1 60.0018 1 62.424V164.052C1 173.286 12.4454 177.586 18.5258 170.637L49.8591 134.828C51.4541 133.005 52.3333 130.665 52.3333 128.243Z" fill="#F08C00" stroke="black"/>
</svg>
