<svg width="512" height="512" viewBox="0 0 512 512" color="#FF9900" xmlns="http://www.w3.org/2000/svg">
  <path d="M459.013 202.929L437.426 181.336H325.22L292.163 238.585H219.827L183.661 175.946L219.827 113.301H292.163L325.22 170.55H426.634L309.06 52.9815C294.877 38.8087 276.047 31 255.997 31C235.947 31 217.101 38.8032 202.929 52.9815L52.9815 202.929C38.8087 217.101 31 235.947 31 255.992C31 276.047 38.8087 294.877 52.9815 309.06L76.7196 332.799H186.775L219.827 275.555H292.163L328.328 338.194L292.163 400.844H219.827L186.775 343.579H87.5051L202.929 459.013C217.101 473.186 235.947 481 255.997 481C276.036 481 294.877 473.186 309.06 459.013L459.013 309.06C473.186 294.877 481 276.036 481 255.992C480.995 235.947 473.18 217.107 459.013 202.929ZM381.758 303.9H326.44L302.374 262.197H209.627L185.555 303.9H130.237L102.575 255.997L130.231 208.094H185.549L209.621 249.803H302.368L326.434 208.094H381.752L409.419 255.997L381.758 303.9Z M280.967 381.44L305.93 338.194L280.967 294.964H231.033L206.07 338.194L231.033 381.44H280.967Z M231.033 132.705L206.07 175.946L231.033 219.181H280.967L305.93 175.946L280.967 132.705H231.033Z" fill="currentColor"/>
</svg>
