<svg xmlns="http://www.w3.org/2000/svg" viewBox="0 0 500 500"><path d="M88.427 359.609s-24.096-32.404-15.78-75.6c8.89-46.176 66.49-52.489 94.943-97.035 28.453-44.547 76.065-61.699 125.568-53.591 60.832 9.963 67.957 92.216 89.884 113.787 21.927 21.57 59.212 76.997 15.84 112.44H88.427z" fill="#d8dce5"/><path d="M397.51 360.11H89.45c-.414 0-.803-.199-1.045-.536l-.334-.464h311.415l-.679.544a2.075 2.075 0 01-1.297.456z" fill="#a6aaad"/><path d="M228.758 139.924H70.343a5 5 0 00-5 5v233.257a5 5 0 005 5h158.414a5 5 0 005-5V144.924a4.998 4.998 0 00-4.999-5z" fill="#f0f0f0"/><path fill="#fff" d="M74.053 181.409h93.244v135.57H74.053z"/><path d="M228.758 139.924H70.343a5 5 0 00-5 5v28.771h168.414v-28.771a4.998 4.998 0 00-4.999-5z" fill="#fa0"/><text transform="translate(83.983 210.032)" fill="#fa0" font-family="Kanit-Bold" font-size="26.077">T</text><path fill="#455a64" d="M102.424 194.765h55.045v2.802h-55.045zM102.424 200.518h37.081v2.802h-37.081zM102.424 206.551h55.045v2.802h-55.045zM83.883 212.607h73.585v2.802H83.883zM83.883 218.568h62.772v2.802H83.883zM83.883 224.53h68.686v2.802H83.883zM83.883 267.266h73.585v2.802H83.883zM83.883 273.228h62.772v2.802H83.883zM83.883 279.19h68.686v2.802H83.883zM83.883 290.859h62.772v2.802H83.883zM83.883 296.821h68.686v2.802H83.883z"/><path fill="#fa0" d="M83.976 231.476h73.493v31.132H83.976zM173.307 181.409h53.773v13.356h-53.773zM173.307 280.908h53.773v13.356h-53.773zM74.053 322.564H227.08v13.356H74.053z"/><path fill="#afafaf" d="M173.307 197.643h53.773v79.387h-53.773zM218.177 372.329H82.956a8.903 8.903 0 01-8.903-8.903V335.92H227.08v27.507a8.903 8.903 0 01-8.903 8.902z"/><text transform="translate(78.42 162.395)" fill="#fff" font-family="Kanit-Bold" font-size="14.306">BLOG</text><g><path d="M423.484 230.131v-2.695c1.211-.259 3.486-.876 3.194-1.809-.396-1.264-3.167-.929-3.167-.929s3.631-.411 3.117-1.918c-.362-1.061-2.127-1.272-3.144-1.305v-.343c2.464-.429 3.214-1.928 2.785-3-.429-1.071-2.785-.857-2.785-.857s-3 12.213-3 12.535 1.714 4.393 3 4.178c1.285-.214 3.964-1.928 2.899-3.428-1.065-1.501-2.899-.429-2.899-.429z" fill="#dd8762"/><path d="M407.767 243.783a.617.617 0 00.617.63h13.983a1.43 1.43 0 001.43-1.397l.316-34.726a2.033 2.033 0 00-.906-1.711.615.615 0 00-.406-.1l-13.774 1.428a.616.616 0 00-.553.602l-.707 35.274z" fill="#455a64"/><path d="M420.865 209.761v31.365a.638.638 0 01-.638.638l-9.843-.127a.638.638 0 01-.638-.638l.319-30.476c0-.326.245-.599.569-.634l9.524-.762a.638.638 0 01.707.634z" fill="#9fc2ff"/><path d="M423.207 206.578a.615.615 0 00-.406-.1l-.131.014-.397 37.921h.094a1.43 1.43 0 001.43-1.397l.316-34.726a2.036 2.036 0 00-.906-1.712zM410.839 208.819c0 .272-.176.492-.394.492-.218 0-.394-.22-.394-.492s.176-.492.394-.492c.217 0 .394.221.394.492zM412.562 208.979a.375.375 0 01-.031-.748l5.51-.457a.368.368 0 01.405.343.375.375 0 01-.343.404l-5.51.457-.031.001z" fill="#263238"/><path d="M410.826 244.408c1.679-3.26 1.139-6.513 1.196-8.153.06-1.711 3.161-5.435 3.564-8.958.403-3.523-1.711-5.033-2.919-2.718-1.208 2.315-4.429 6.14-4.429 6.14V220.25s-.973 1.095-1.778 1.699c-.805.604-4.485 4.065-4.381 9.172.103 5.108-.987 15.198-1.893 17.916s-2.516 4.63-2.516 4.63l8.983 4.429s3.901-1.812 5.369-3.12c1.469-1.308 2.155-6.643 2.155-6.643l1.46-3.925h-4.811z" fill="#ffbe9d"/><path fill="#dd8762" d="M415.636 244.408h-4.81l4.041 2.068z"/><g><path d="M405.915 236.508c-.153-1.087.064-2.172.442-3.181.392-1.001.997-1.96 1.88-2.609-.409 1.01-.822 1.918-1.182 2.88-.378.951-.708 1.913-1.14 2.91z" fill="#dd8762"/></g><g><path d="M412.052 237.989c.544 1.81.288 3.793-.327 5.572-.345.882-.743 1.749-1.296 2.517-.517.789-1.171 1.477-1.868 2.094.476-.808.951-1.587 1.366-2.395.431-.798.776-1.631 1.093-2.47.312-.843.54-1.712.722-2.596.166-.887.301-1.789.31-2.722z" fill="#dd8762"/></g><path d="M410.445 258.695l-11.227-6.089a1.655 1.655 0 00-2.162.53l-15.964 23.703c-1.368 2.131-1.998 2.406-4.116 1.017l-16.43-8.363c-10.005-4.638-16.691-9.192-26.441-9.189l-11.722.004s-.525-.018-1.465-.001c-19.173.356-35.958 12.982-41.849 31.232l-20.68 64.07h17.839l21.739-62.106-.588 62.106h51.669v-67.131l13.378 5.882c8.423 4.394 21.759 9.671 29.023-3.062.315-.553.628-1.106.975-1.64l18.616-28.606a1.65 1.65 0 00-.595-2.357z" fill="#fa0"/><path d="M306.973 242.124v21.569h.031c.329 8.226 7.083 14.799 15.39 14.799s15.061-6.573 15.39-14.799h.031v-21.569h-30.842z" fill="#eb996e"/><path d="M286.082 218.381s-6.439-6.932-6.439-25.396 15.885-30.997 30.477-32.188c14.593-1.191 16.975-6.85 20.251-4.169s-6.364 8.636-6.364 8.636 27.508-10.423 30.784-6.85c3.276 3.574-10.721 8.636-10.721 8.636s16.762 4.276 19.74 13.21c2.978 8.934-4.85 9.232-4.85 9.232s5.526 14.271-1.404 33.652c-7.544 21.099-55.189 23.432-56.083 22.837-.893-.594-15.391-27.6-15.391-27.6z" fill="#263238"/><path d="M354.052 214.014c-.026 0-.051.002-.077.004-.053.96-.095 1.555-.095 1.555l-1.248 10.027c-.18 1.45-2.124 1.825-2.81.536-1.691-3.175-3.28-8.918-.913-17.894a23.072 23.072 0 01-2.901-7.073l-.342-1.522c-6.753 1.749-7.072.029-11.567-2.009-.034-.015-.075.023-.047.048 1.679 1.507 6.222 6.057 2.975 8.574-3.581 2.776-15.19-6.634-17.457-8.212-.091-.063-.208.027-.17.13.529 1.422 2.167 6.353-.212 7.191-3.65 1.286-10.322-8.801-12.219-11.817-.101-.16-.346-.064-.312.122.366 1.99.884 6.476-1.625 7.574-2.349 1.028-4.909-3.885-6.149-6.69-.2-.453-.856-.34-.915.152-.505 4.26-2.042 8.35-3.64 11.652 3.125 10.063 1.434 16.382-.372 19.773-.687 1.29-2.63.914-2.81-.536l-1.248-10.027s-.042-.594-.095-1.551c-6.368.086-11.505 5.267-11.505 11.655 0 6.442 5.222 11.664 11.664 11.664.144 0 .283-.016.425-.021 2.627 15.073 15.763 27.535 31.587 27.535 15.826 0 28.965-12.464 31.591-27.538.163.007.323.025.488.025 6.442 0 11.664-5.222 11.664-11.664-.001-6.441-5.223-11.663-11.665-11.663z" fill="#ffbe9d"/><g><path d="M311.394 240.544c1.928 1.812 3.882 3.411 6.096 4.5 1.089.58 2.267.929 3.475 1.181 1.22.285 2.476.24 3.818.27-1.2.538-2.56.917-3.936.819a9.51 9.51 0 01-3.978-1.012 11.972 11.972 0 01-3.267-2.425c-.925-.978-1.718-2.086-2.208-3.333z" fill="#263238"/><g fill="#263238"><path d="M307.851 222.339a2.731 2.731 0 11-5.463 0 2.731 2.731 0 015.463 0z"/><path d="M302.402 219.608c-.122-1.154.608-2.325 1.598-3.042 1.014-.71 2.235-1.006 3.387-1.053.57-.048 1.219.027 1.817.173.602.181 1.183.452 1.673.842.968.787 1.576 1.93 1.565 3.08-.747-.847-1.548-1.442-2.367-1.807-.837-.347-1.669-.465-2.622-.424-.965.024-1.892.134-2.754.445-.85.316-1.672.853-2.297 1.786zM301.017 213.121c1.82-.332 5.471-.827 10.61-.709.615.014 1.022-.483.709-.874-.787-.985-2.536-2.382-6.039-2.153-3.96.258-5.554 1.829-6.188 2.927-.259.447.268.925.908.809z"/><g><path d="M331.099 222.339a2.731 2.731 0 105.463 0 2.731 2.731 0 00-5.463 0z"/><path d="M341.153 219.608c.122-1.154-.608-2.325-1.598-3.042-1.013-.71-2.235-1.006-3.387-1.053-.57-.048-1.219.027-1.817.173-.602.181-1.183.452-1.673.842-.968.787-1.576 1.93-1.566 3.08.748-.847 1.548-1.442 2.367-1.807.837-.347 1.669-.465 2.622-.424.965.024 1.892.134 2.754.445.852.316 1.673.853 2.298 1.786zM341.365 213.121c-1.82-.332-5.471-.827-10.61-.709-.615.014-1.022-.483-.709-.874.787-.985 2.536-2.382 6.039-2.153 3.96.258 5.554 1.829 6.188 2.927.258.447-.268.925-.908.809z"/></g></g><path d="M322.667 220.267c.969 2.054 1.806 4.151 2.597 6.262.799 2.109 1.52 4.243 2.226 6.382l.505 1.612c.213.638.234 1.405.013 2.068-.429 1.343-1.78 2.318-3.154 2.249-2.268-.098-4.509-.254-6.765-.545 2.249-.293 4.513-.443 6.75-.55.9-.067 1.688-.708 1.899-1.544a2.107 2.107 0 00-.048-1.255l-.534-1.603c-.679-2.148-1.344-4.3-1.93-6.478-.595-2.175-1.143-4.365-1.559-6.598z" fill="#263238"/><path d="M287.188 218.735c-1.535.626-2.882 1.625-3.806 2.89-.947 1.259-1.332 2.831-1.334 4.394-.03 1.578.377 3.143 1.266 4.424.904 1.27 2.295 2.227 3.874 2.73-1.653-.144-3.325-.925-4.45-2.281-1.137-1.35-1.646-3.154-1.625-4.874.012-1.721.515-3.54 1.7-4.847 1.133-1.329 2.737-2.158 4.375-2.436zM356.352 233.174c1.535-.626 2.882-1.625 3.806-2.89.947-1.259 1.332-2.831 1.334-4.394.03-1.578-.377-3.143-1.266-4.424-.904-1.27-2.295-2.227-3.874-2.73 1.653.144 3.325.925 4.451 2.281 1.137 1.35 1.645 3.154 1.625 4.874-.012 1.721-.515 3.54-1.7 4.847-1.134 1.33-2.738 2.159-4.376 2.436z" fill="#dd8762"/></g><g><path d="M321.079 199.158c1.607 1.077 3.204 2.154 4.866 3.119 1.643.989 3.324 1.912 5.046 2.679.863.376 1.743.701 2.621.928.872.222 1.778.305 2.486.098.334-.129.629-.282.832-.554.207-.287.363-.586.379-.938.074-.705-.222-1.555-.636-2.337-.825-1.597-2.053-3.069-3.32-4.468-1.26-1.419-2.645-2.741-4.028-4.066a230.81 230.81 0 00-8.659-7.645 77.548 77.548 0 019.437 6.77 53.555 53.555 0 014.29 3.973c1.344 1.427 2.638 2.93 3.614 4.752.453.917.878 1.957.756 3.188-.048.615-.34 1.219-.715 1.688-.392.501-.98.827-1.554.996-1.171.285-2.247.081-3.224-.193-.983-.284-1.898-.688-2.776-1.139-3.504-1.816-6.571-4.231-9.415-6.851z" fill="#455a64"/><path d="M333.8 197.119c1.249.763 2.515 1.368 3.82 1.792 1.305.406 2.634.681 3.976.654.334.042.668-.026 1.003-.032.336-.008.67-.044 1.001-.114.333-.055.671-.095 1.005-.161.326-.099.657-.184.993-.265.341-.066.665-.187.99-.312l.997-.346c.659-.257 1.297-.575 2.003-.817a17.134 17.134 0 01-1.651 1.464c-.632.373-1.229.85-1.936 1.11-1.352.675-2.895.937-4.422.972a9.85 9.85 0 01-4.41-1.077c-1.343-.676-2.542-1.646-3.369-2.868zM314.231 190.376c1.104.864 2.053 1.884 2.914 2.971a21.765 21.765 0 012.274 3.503c.62 1.257 1.159 2.586 1.368 4.025.112.713.132 1.456 0 2.182-.142.719-.446 1.432-.969 1.911.478-1.327.209-2.606-.172-3.834-.404-1.227-.953-2.425-1.562-3.602-1.201-2.375-2.607-4.665-3.853-7.156zM333.402 165.759c1.195-.162 2.404-.147 3.611-.138 1.204.065 2.409.17 3.607.339 2.395.335 4.761.912 7.046 1.719 2.275.825 4.514 1.783 6.581 3.045 1.057.587 2.043 1.29 3.039 1.968.974.711 1.89 1.5 2.802 2.277-2.053-1.256-4.064-2.535-6.209-3.568-2.115-1.082-4.31-1.99-6.543-2.777-2.227-.813-4.529-1.401-6.849-1.908-2.325-.487-4.687-.829-7.085-.957zM358.96 189.494c-1.701.71-3.577.907-5.412.93-1.847.019-3.681-.237-5.48-.615a29.778 29.778 0 01-5.222-1.708c-.844-.351-1.65-.79-2.462-1.2a35.097 35.097 0 01-2.316-1.461c.893.224 1.747.514 2.605.784l2.572.777c.867.217 1.702.524 2.571.711.853.242 1.713.45 2.578.633 1.723.392 3.461.698 5.217.914 1.759.191 3.53.333 5.349.235zM302.389 200.33c-1.097-.84-1.962-1.96-2.694-3.127-.741-1.172-1.315-2.435-1.814-3.719-.494-1.289-.859-2.619-1.147-3.962-.139-.672-.236-1.353-.34-2.029-.051-.687-.134-1.366-.153-2.053.438 1.303.843 2.596 1.248 3.883.435 1.277.831 2.561 1.327 3.806a44.426 44.426 0 001.56 3.698c.599 1.195 1.201 2.4 2.013 3.503z" fill="#455a64"/></g></g><g><path d="M378.43 384.239H262.902a7.259 7.259 0 01-7.215-6.469l-6.412-58.6c-.47-4.295 2.894-8.048 7.215-8.048h128.351c4.321 0 7.685 3.752 7.215 8.048l-6.412 58.6a7.256 7.256 0 01-7.214 6.469z" fill="#455a64"/><path d="M391.797 316.325c-.882-2.98-3.631-5.203-6.955-5.203H256.491c-3.324 0-6.074 2.224-6.955 5.203h142.261z" fill="#263238"/><path d="M326.968 350.996a6.302 6.302 0 11-12.604 0 6.302 6.302 0 0112.604 0z" fill="#e0e0e0"/></g><g><path fill="#fa0" d="M246.795 115.761h64.599v36.654h-64.599z"/><circle transform="rotate(-23.437 279.083 133.583)" cx="279.095" cy="133.575" fill="#09f" r="9.674"/><path d="M277.354 131.498v4.514a.952.952 0 001.531.755l2.998-2.3a.952.952 0 00-.014-1.521l-2.998-2.214a.952.952 0 00-1.517.766z" fill="#f0f0f0"/><path d="M305.036 147.997h-53.783a.743.743 0 110-1.485h53.783a.743.743 0 010 1.485z" fill="#09f"/><path d="M305.036 146.512H267.55v1.485h37.486a.742.742 0 100-1.485z" fill="#f0f0f0"/><path d="M267.47 146.512h-16.217a.743.743 0 100 1.484h16.217v-1.484z" fill="#09f"/><path d="M269.421 147.254a1.85 1.85 0 11-3.7 0 1.85 1.85 0 013.7 0z" fill="#09f"/><path d="M268.452 147.254a.881.881 0 11-1.762 0 .881.881 0 011.762 0z" fill="#8cb0ff"/><g><path d="M359.423 341.202v21.032a3.292 3.292 0 003.292 3.292h38.253a3.29 3.29 0 011.999.677l8.402 6.423c2.166 1.656 5.291.111 5.291-2.615v-28.808a3.292 3.292 0 00-3.292-3.292h-50.653a3.291 3.291 0 00-3.292 3.291z" fill="#fa0"/><circle cx="379.266" cy="352.134" r="2.192" fill="#f0f0f0"/><path d="M390.982 352.134a2.191 2.191 0 11-4.383.001 2.191 2.191 0 014.383-.001zM400.507 352.134a2.192 2.192 0 11-4.384 0 2.192 2.192 0 014.384 0z" fill="#f0f0f0"/></g><g><path d="M438.657 175.363v21.833a2.89 2.89 0 01-2.891 2.891h-43.374c-.635 0-1.252.209-1.756.594l-9.153 6.998c-1.902 1.454-4.647.098-4.647-2.297v-30.02a2.89 2.89 0 012.891-2.891h56.039a2.893 2.893 0 012.891 2.892z" fill="#fa0"/><path d="M393.719 186.176a5.678 5.678 0 11-11.356 0 5.678 5.678 0 0111.356 0z" fill="#09f"/><path d="M397.83 184.362l.936-2.76h1.512l-.744 2.76h-1.704zm2.124 0l.937-2.76h1.512l-.744 2.76h-1.705zM426.175 191.306l.937-2.76h1.512l-.744 2.76h-1.705zm2.124 0l.936-2.76h1.512l-.744 2.76h-1.704z" fill="#fff"/><path fill="#09f" d="M403.453 182.547h29.314v1.309h-29.314zM397.83 185.726h33.303v1.309H397.83zM397.83 188.906h27.45v1.309h-27.45z"/></g><g><path fill="#fa0" d="M186.327 225.382h71.606v40.63h-71.606z"/><path fill="#09f" d="M189.703 229.022h64.302v33.172h-64.302z"/><path d="M189.703 262.195l18.221-24.457c1.981-2.659 5.957-2.679 7.966-.041l13.373 17.568 7.369-6.929a4.985 4.985 0 017.396.63l9.977 13.228h-64.302z" fill="#244a96"/><path d="M235.151 239.195a5.304 5.304 0 11-10.609 0 5.304 5.304 0 0110.609 0z" fill="#fff"/></g></g></svg>