<svg height="200" viewBox="0 0 806 511" fill="none" xmlns="http://www.w3.org/2000/svg">
  <path
    d="M544.8 -1147.08L1098.08 484L714.167 614.228C692.688 577.817 658.308 547.748 620.707 527.375C561.271 495.163 493.688 482.213 428.253 465.21C391.41 455.641 349.053 438.735 340.625 401.621C335.248 377.942 346.056 354.034 351.234 330.304C364.887 267.777 335.093 198.172 280.434 164.889C266.851 156.619 251.423 149.934 242.315 136.897C214.215 96.6599 268.253 45.1471 263.125 -3.66296C261.266 -21.3099 251.617 -37.124 241.172 -51.463C126.21 -209.336 -87.5388 -248.663 -263.351 -333.763C-314.682 -358.613 -364.939 -389.135 -400.106 -434.021C-435.273 -478.907 -453.106 -540.621 -434.096 -594.389C-408.119 -667.874 -325.246 -703.948 -248.613 -718.248C-171.98 -732.548 -90.1128 -734.502 -23.1788 -774.468C49.5632 -817.9 90.8002 -897.847 147.393 -960.879C175.737 -992.458 208.024 -1019.8 242.465 -1044.52L544.8 -1147.08Z"
    fill="rgb(209 213 219 / 0.4)"
  ></path>
  <path
    d="M726.923 -1341.99L1280.23 288.8L896.3 419.008C874.821 382.608 840.438 352.54 802.834 332.171C743.394 299.964 675.808 287.017 610.369 270.017C573.523 260.45 531.162 243.546 522.736 206.439C517.358 182.765 528.167 158.861 533.345 135.139C547 72.6228 517.203 3.03076 462.545 -30.2462C448.963 -38.5142 433.533 -45.1982 424.425 -58.2323C396.325 -98.4623 450.366 -149.965 445.237 -198.767C443.377 -216.411 433.727 -232.222 423.283 -246.567C308.3 -404.412 94.5421 -443.732 -81.2789 -528.817C-132.615 -553.663 -182.874 -584.179 -218.044 -629.057C-253.214 -673.935 -271.044 -735.64 -252.036 -789.397C-226.058 -862.869 -143.178 -898.936 -66.543 -913.234C10.092 -927.532 91.9721 -929.485 158.905 -969.444C231.652 -1012.86 272.9 -1092.8 329.489 -1155.82C357.834 -1187.39 390.124 -1214.73 424.565 -1239.45L726.923 -1341.99Z"
    fill="rgb(156 163 175 / 0.2)"
  ></path>
</svg>